Hanif_Shallow_7_5_grf.mot
version=1
nRows=47
nColumns=19
inDegrees=yes
endheader
time	right_ground_force_vx	right_ground_force_vy	right_ground_force_vz	right_ground_force_px	right_ground_force_py	right_ground_force_pz	right_ground_torque_x	right_ground_torque_y	right_ground_torque_z	left_ground_force_vx	left_ground_force_vy	left_ground_force_vz	left_ground_force_px	left_ground_force_py	left_ground_force_pz	left_ground_torque_x	left_ground_torque_y	left_ground_torque_z
1.950000	7.450550	293.635000	55.940100	0.166936	0.000000	-1.446060	-17.485000	6.841180	-8.842940	-8.394500	314.504000	-63.729900	0.195177	0.000000	-0.976785	23.298600	-3.175810	-0.810111
1.955000	7.307890	293.151000	55.653800	0.167832	0.000000	-1.446200	-17.414300	6.877920	-8.547240	-8.534240	314.901000	-63.664600	0.195051	0.000000	-0.975996	23.079900	-3.131090	-0.863230
1.960000	7.278800	293.019000	55.627800	0.168158	0.000000	-1.445220	-17.695700	6.818920	-8.455960	-8.575330	311.527000	-62.991800	0.194961	0.000000	-0.976066	22.857900	-3.173770	-0.865387
1.965000	7.400840	291.774000	55.526200	0.168498	0.000000	-1.445400	-17.564200	6.782000	-8.319150	-8.427120	311.901000	-63.138300	0.195199	0.000000	-0.976282	22.951400	-3.191120	-0.787788
1.970000	7.195470	291.255000	55.480300	0.168504	0.000000	-1.446400	-17.243600	6.853020	-8.282550	-8.604750	310.578000	-63.038300	0.195579	0.000000	-0.975943	22.750800	-3.126970	-0.667400
1.975000	6.656840	291.655000	55.174300	0.168774	0.000000	-1.445490	-17.540000	6.822220	-8.218770	-8.467940	309.612000	-62.624000	0.195712	0.000000	-0.976253	22.776500	-3.175040	-0.614113
1.980000	6.741080	290.592000	55.662500	0.168611	0.000000	-1.445690	-17.420000	6.752180	-8.240700	-8.965180	308.669000	-62.895600	0.195778	0.000000	-0.976557	22.808000	-3.161730	-0.578682
1.985000	6.346850	291.195000	55.691700	0.168684	0.000000	-1.446510	-17.221600	6.717820	-8.240040	-9.086310	308.343000	-62.822600	0.196542	0.000000	-0.976651	22.813900	-3.076210	-0.347362
1.990000	6.839480	291.901000	55.594400	0.168816	0.000000	-1.446390	-17.291900	6.741590	-8.226450	-9.072920	309.175000	-62.741800	0.196288	0.000000	-0.976614	22.862800	-3.083450	-0.433796
1.995000	6.492090	291.457000	55.999200	0.168743	0.000000	-1.446190	-17.324300	6.933060	-8.188880	-9.067140	308.405000	-62.792400	0.196618	0.000000	-0.977272	23.011400	-3.125990	-0.312722
2.000000	6.667040	292.776000	56.486900	0.169376	0.000000	-1.446000	-17.455200	6.986590	-8.028860	-9.295800	309.415000	-62.367600	0.197507	0.000000	-0.976738	22.924600	-3.095330	-0.040542
2.005000	6.819570	293.856000	56.486500	0.168883	0.000000	-1.446210	-17.457100	7.009750	-8.212590	-9.338570	309.977000	-62.431800	0.197396	0.000000	-0.977089	23.073800	-3.054760	-0.085203
2.010000	6.810720	294.987000	56.717600	0.169239	0.000000	-1.446110	-17.553600	6.993330	-8.143340	-8.963060	310.156000	-62.465700	0.197781	0.000000	-0.976775	22.986400	-3.094370	0.040097
2.015000	6.670340	296.314000	56.911400	0.169183	0.000000	-1.446270	-17.587800	7.094150	-8.182280	-9.269700	309.769000	-62.098800	0.198134	0.000000	-0.976204	22.784300	-3.038860	0.143839
2.020000	6.520460	296.595000	57.139900	0.169434	0.000000	-1.445630	-17.793800	7.160630	-8.098550	-9.390740	309.084000	-62.079500	0.197837	0.000000	-0.977600	23.169300	-3.101900	0.068192
2.025000	6.799830	297.751000	57.048900	0.169383	0.000000	-1.446860	-17.494200	7.113920	-8.164890	-9.783280	307.385000	-62.065900	0.197881	0.000000	-0.977915	23.143600	-3.033740	0.082741
2.030000	6.858340	298.312000	57.344300	0.169566	0.000000	-1.446230	-17.715700	7.149220	-8.118810	-9.694050	309.893000	-61.816800	0.198375	0.000000	-0.976690	22.952200	-3.094270	0.236058
2.035000	7.086260	299.016000	57.330400	0.169369	0.000000	-1.446170	-17.770400	7.221550	-8.192610	-9.204650	308.533000	-61.162800	0.199044	0.000000	-0.976519	22.795100	-3.135300	0.449231
2.040000	7.088770	303.096000	58.053700	0.169624	0.000000	-1.446200	-18.006200	7.297210	-8.228000	-9.385310	307.790000	-61.291700	0.198637	0.000000	-0.977087	22.916800	-3.114720	0.322430
2.045000	7.388590	306.141000	58.761700	0.170458	0.000000	-1.446800	-18.001500	7.287840	-8.062480	-9.599220	309.730000	-61.238900	0.199228	0.000000	-0.976979	23.030800	-3.123350	0.509438
2.050000	7.913350	308.049000	59.582800	0.170774	0.000000	-1.445700	-18.441900	7.426800	-7.995740	-9.555450	309.821000	-61.293000	0.199479	0.000000	-0.977149	23.090900	-3.143540	0.594220
2.055000	8.004580	312.844000	60.686600	0.171748	0.000000	-1.445320	-18.848200	7.455480	-7.818920	-9.634450	311.445000	-61.566300	0.199994	0.000000	-0.977250	23.244300	-3.146880	0.761593
2.060000	8.298890	318.234000	61.328400	0.172598	0.000000	-1.445330	-19.165300	7.599350	-7.676530	-9.463970	313.116000	-61.529600	0.199966	0.000000	-0.978036	23.612400	-3.180960	0.753693
2.065000	8.459100	325.109000	62.799300	0.172918	0.000000	-1.445670	-19.468300	7.748500	-7.735040	-9.745190	317.178000	-61.634000	0.200601	0.000000	-0.978121	23.946600	-3.132800	0.948871
2.070000	8.584690	328.821000	63.955600	0.173457	0.000000	-1.445060	-19.894600	7.781190	-7.646380	-9.934080	320.427000	-62.520300	0.201196	0.000000	-0.977843	24.102700	-3.079810	1.143830
2.075000	8.927390	333.080000	64.463200	0.173310	0.000000	-1.444280	-20.408000	7.893960	-7.801850	-10.309200	321.520000	-62.698000	0.201855	0.000000	-0.978543	24.415100	-3.054270	1.366720
2.080000	9.372290	339.914000	65.468000	0.174368	0.000000	-1.444740	-20.666100	7.946010	-7.615910	-10.339700	322.024000	-62.950300	0.201801	0.000000	-0.978850	24.552800	-3.066010	1.354700
2.085000	9.475220	345.379000	66.555900	0.174613	0.000000	-1.444610	-21.043700	8.127970	-7.639370	-9.997220	324.661000	-62.967900	0.202280	0.000000	-0.979245	24.876600	-3.079500	1.513310
2.090000	9.794010	352.163000	68.102400	0.175420	0.000000	-1.444030	-21.661200	8.130890	-7.524860	-10.249900	328.272000	-63.273400	0.202683	0.000000	-0.978764	24.994900	-3.016780	1.644470
2.095000	9.600110	359.148000	69.293700	0.175872	0.000000	-1.443460	-22.302900	8.253120	-7.511430	-10.355600	331.166000	-63.684100	0.202666	0.000000	-0.979349	25.410800	-3.091950	1.662260
2.100000	9.333050	368.091000	70.925500	0.176868	0.000000	-1.442650	-23.163400	8.315330	-7.342650	-10.309800	334.883000	-64.622400	0.203016	0.000000	-0.979501	25.745600	-3.129510	1.803760
2.105000	9.467590	376.441000	71.941600	0.177847	0.000000	-1.442650	-23.695900	8.245680	-7.182670	-10.329300	339.888000	-65.200100	0.203566	0.000000	-0.978738	25.868900	-3.145960	2.010120
2.110000	9.239200	382.420000	73.289600	0.178692	0.000000	-1.442390	-24.176500	8.359690	-6.958300	-10.996000	343.722000	-65.785900	0.203597	0.000000	-0.979428	26.402600	-3.071850	2.030600
2.115000	8.585530	389.571000	74.489400	0.179168	0.000000	-1.441920	-24.826200	8.357520	-6.919550	-11.331600	347.253000	-66.511100	0.204355	0.000000	-0.979855	26.823100	-2.980110	2.305300
2.120000	8.673350	393.413000	75.428300	0.179676	0.000000	-1.441770	-25.133400	8.273560	-6.810320	-11.686200	348.428000	-66.461500	0.204463	0.000000	-0.979535	26.807900	-3.011590	2.356670
2.125000	8.645290	398.210000	76.221300	0.180355	0.000000	-1.441700	-25.466300	8.381740	-6.611570	-11.010700	351.715000	-67.485600	0.204104	0.000000	-0.979798	27.142800	-3.090140	2.251760
2.130000	8.987820	401.932000	76.467400	0.180044	0.000000	-1.441010	-25.980800	8.423680	-6.819850	-10.514300	354.168000	-67.871300	0.204227	0.000000	-0.979405	27.185300	-3.121000	2.303950
2.135000	8.552520	404.377000	76.919300	0.180302	0.000000	-1.440570	-26.322500	8.440280	-6.754560	-10.176000	355.729000	-68.776600	0.203886	0.000000	-0.978931	27.132500	-3.206570	2.203450
2.140000	8.554370	405.719000	77.883900	0.180439	0.000000	-1.440590	-26.401500	8.479310	-6.708540	-9.971080	359.294000	-69.526700	0.203564	0.000000	-0.979082	27.452400	-3.192200	2.093010
2.145000	8.663610	409.012000	78.468300	0.180982	0.000000	-1.440450	-26.677000	8.368160	-6.568470	-9.569820	361.214000	-69.597200	0.203896	0.000000	-0.979069	27.588900	-3.216260	2.219340
2.150000	8.577700	411.571000	78.584700	0.180799	0.000000	-1.440230	-26.938300	8.432190	-6.688250	-9.514990	361.465000	-70.818800	0.203693	0.000000	-0.978681	27.468400	-3.280300	2.169940
2.155000	8.684570	413.298000	78.975700	0.180949	0.000000	-1.440050	-27.122200	8.429530	-6.659740	-9.225430	363.126000	-71.173100	0.203322	0.000000	-0.978164	27.402700	-3.350940	2.045210
2.160000	8.566510	413.527000	79.344700	0.181248	0.000000	-1.440080	-27.126400	8.493950	-6.518530	-9.100530	362.103000	-71.380300	0.203295	0.000000	-0.978882	27.585900	-3.398480	2.045700
2.165000	9.382550	414.096000	79.116200	0.180966	0.000000	-1.439590	-27.358700	8.445940	-6.674940	-8.576220	364.179000	-71.691300	0.203454	0.000000	-0.977812	27.344500	-3.335090	2.089640
2.170000	9.519380	414.847000	79.918800	0.181282	0.000000	-1.439800	-27.318800	8.411940	-6.554120	-8.185320	363.145000	-72.355200	0.203480	0.000000	-0.978523	27.523700	-3.465200	2.127510
2.175000	10.019100	415.225000	80.148200	0.180908	0.000000	-1.439120	-27.619200	8.504040	-6.710890	-8.057310	363.249000	-72.868600	0.203082	0.000000	-0.977928	27.313600	-3.497650	1.987450
2.180000	10.594000	412.861000	80.235600	0.181160	0.000000	-1.439080	-27.466700	8.503660	-6.557200	-7.834930	360.669000	-73.196500	0.203647	0.000000	-0.978548	27.343300	-3.538930	2.207980
